#!OML:ASF F:\VICON\USERDATA\INSTALL\rory3\rory3.ASF
:FULLY-SPECIFIED
:DEGREES
10
root 0.3606177579276516 16.784164518756718 -21.99000652480941 3.384566029031035 -3.525810855346478 -6.0523765369469045
lfemur -18.36075212432166 4.876408622654597 -12.717118591270996
ltibia 88.57352157666324
lfoot 23.9308073154637 -18.31867256727151
ltoes 7.806170410809777
rfemur -29.047935847512505 5.196242233424628 33.27011487991521
rtibia 49.60117815723123
rfoot -21.43424671599897 -13.599499776687486
rtoes -2.4917962252853356
lowerback 16.922279159805477 -0.4723842294417747 3.9341598770911537
upperback 0.17207929168235214 0.9961541895518127 3.4226144457722434
thorax -8.959749466276625 0.35101851919337906 2.0018905190437053
lowerneck -17.77797210405335 -2.6534976872013507 -2.5119513031347926
upperneck 14.130693572139883 -3.1921474069558062 1.9699720230207023
head 7.39404081285554 -1.5263209395982433 0.6572682073192565
lclavicle 3.072422383570217e-16 -4.306756316828131e-16
lhumerus -45.828508388183614 -8.476159792376551 97.60161220218615
lradius 103.0073172888437
lwrist 31.744210957952518
lhand -25.212602821474892 4.187741085602843
lfingers 7.125020000000001
lthumb 1.306066787104482 34.189215712225675
rclavicle 3.072422383570217e-16 -4.306756316828131e-16
rhumerus -36.20960508744528 5.018526118186773 -93.57638329772348
rradius 97.33642885229418
rwrist -18.28250647687051
rhand -20.297135349376138 39.81414987635318
rfingers 7.125020000000001
rthumb 6.052764662040182 9.93984704175875
11
root 0.3320388725143998 16.783506414244336 -21.075925617063547 3.5759030453611014 -2.213709088437466 -5.908675689748846
lfemur -25.975787610983787 4.283440355969079 -12.512487119319983
ltibia 90.72359433353617
lfoot 19.98679021132031 -17.011390453282225
ltoes 1.4523276513574537
rfemur -25.0305081435525 5.090907240929211 33.42415067183742
rtibia 49.61238964876752
rfoot -24.920933141329375 -14.748938889298135
rtoes 0.04845622863136567
lowerback 16.542345189390375 -0.6035996219642962 3.533634539555041
upperback 0.06283999245032845 0.7454164696345691 3.6179635303368256
thorax -8.90392370990841 0.2607105675869279 2.5928298527926197
lowerneck -17.196697327945795 -2.833804997556299 -2.681624544783152
upperneck 13.915146386234508 -3.4360195648393375 2.027222065766373
head 7.2741218178532865 -1.6447571834454267 0.6783873971207581
lclavicle 3.0724231883539337e-16 -4.3067568280186e-16
lhumerus -48.21993003292122 -8.58957341116084 98.36823368409146
lradius 102.99472649366572
lwrist 31.470139303991594
lhand -25.555024517136605 3.0006373585365314
lfingers 7.125020000000001
lthumb 0.975362435128409 32.99563564986882
rclavicle 3.0724231883539337e-16 -4.3067568280186e-16
rhumerus -32.56148873945549 5.9421135488184165 -93.68636767578772
rradius 98.2893812264205
rwrist -18.48135360449681
rhand -20.192993838407073 39.81210453604296
rfingers 7.125020000000001
rthumb 6.153321314199971 9.939548351710693
12
root 0.31408601415717646 16.841419611333766 -20.129857522344146 3.907048211142144 -0.8943492383974415 -5.228096876701258
lfemur -32.87711330440069 3.3616760659534592 -13.418100705397615
ltibia 90.96399491575605
lfoot 14.375438356434177 -14.718629168437653
ltoes -4.701306555666538
rfemur -20.14588565133315 4.438585943481626 33.21996554600263
rtibia 48.23069368569442
rfoot -26.772026432774425 -16.226136354861815
rtoes 4.75080349420759
lowerback 15.983323400321472 -0.5696317902656888 2.9302648365145183
upperback -0.23461630825286123 0.6029387989512106 3.523529798252115
thorax -8.955470369385191 0.22491247080732202 2.8501442199814204
lowerneck -16.38164369562034 -3.1924123488683573 -2.8348855129161743
upperneck 13.62111993711918 -3.9823529004594667 2.2640390280704272
head 7.113108319985271 -1.8871444408089522 0.732456604338684
lclavicle 3.0724229190847247e-16 -4.3067571665092954e-16
lhumerus -51.269979969443945 -9.60797351703606 99.3392822644466
lradius 103.68741027819279
lwrist 31.21786000103383
lhand -26.14294760228933 3.663458708555455
lfingers 7.125020000000001
lthumb 0.40755500248231724 33.63769985778216
rclavicle 3.0724229190847247e-16 -4.3067571665092954e-16
rhumerus -31.845683858193723 6.819105537418902 -94.05958889108283
rradius 100.07713924009754
rwrist -19.702064178180375
rhand -20.330969464191732 39.26402770891423
rfingers 7.125020000000001
rthumb 6.0200852019221 9.386953094684605
13
root 0.3010844247130482 16.927443272594846 -19.162433276322147 4.131821582010227 0.3331910994356579 -4.676150146548825
lfemur -38.744634495756365 2.009186316642166 -14.421761411928008
ltibia 89.43562035329896
lfoot 11.694218160494568 -13.106735163276547
ltoes 1.2565685567104463
rfemur -14.648080166219922 4.007442200901044 33.170533770126966
rtibia 45.94685095581191
rfoot -26.228825678194834 -17.60143801683763
rtoes -4.806160802725847
lowerback 15.302287574057578 0.24427258459415968 3.212870043294635
upperback -0.14177956257402297 1.487945952790428 2.934665224001467
thorax -8.55588830166333 0.6337320629139231 1.5834438041553245
lowerneck -17.375883626925816 -4.030187120881808 -2.380787092755074
upperneck 14.040545811200472 -5.314155258975197 2.552760904369991
head 7.351483668962168 -2.450362530246321 0.6607746908891816
lclavicle 3.072422571151551e-16 -4.306755923073911e-16
lhumerus -53.124670807586455 -12.526040485303856 100.02303648491267
lradius 104.48314853344071
lwrist 31.23875977506391
lhand -25.9192194722776 4.6231683521256315
lfingers 7.125020000000001
lthumb 0.6235922736460066 34.60330958825967
rclavicle 3.072422571151551e-16 -4.306755923073911e-16
rhumerus -29.329624290675003 6.140216553675133 -94.2678108620902
rradius 101.61166394557667
rwrist -20.34051504535721
rhand -20.605759482491237 38.69263400224895
rfingers 7.125020000000001
rthumb 5.75467941532174 8.809017720706814
